<svg width="40" height="41" viewBox="0 0 40 41" fill="none" xmlns="http://www.w3.org/2000/svg">
<rect y="0.5" width="40" height="40" rx="8" fill="#DC143C"/>
<g clip-path="url(#clip0_181_1397)">
<path d="M16 20.5C16 21.5609 16.4214 22.5783 17.1716 23.3284C17.9217 24.0786 18.9391 24.5 20 24.5C21.0609 24.5 22.0783 24.0786 22.8284 23.3284C23.5786 22.5783 24 21.5609 24 20.5C24 19.4391 23.5786 18.4217 22.8284 17.6716C22.0783 16.9214 21.0609 16.5 20 16.5C18.9391 16.5 17.9217 16.9214 17.1716 17.6716C16.4214 18.4217 16 19.4391 16 20.5Z" stroke="white" stroke-width="1.5" stroke-linecap="round" stroke-linejoin="round"/>
<path d="M24 20.4998V21.9998C24 22.6629 24.2634 23.2988 24.7322 23.7676C25.2011 24.2365 25.837 24.4998 26.5 24.4998C27.163 24.4998 27.7989 24.2365 28.2678 23.7676C28.7366 23.2988 29 22.6629 29 21.9998V20.4998C29.0025 18.5659 28.382 16.6827 27.2304 15.129C26.0788 13.5754 24.4574 12.434 22.6064 11.8739C20.7554 11.3139 18.7732 11.365 16.9534 12.0196C15.1337 12.6742 13.5732 13.8976 12.5032 15.5085C11.4332 17.1194 10.9105 19.0321 11.0126 20.9633C11.1146 22.8945 11.8361 24.7415 13.07 26.2306C14.3039 27.7197 15.9846 28.7718 17.8632 29.2309C19.7418 29.6901 21.7183 29.5319 23.5 28.7798" stroke="white" stroke-width="1.5" stroke-linecap="round" stroke-linejoin="round"/>
</g>
<defs>
<clipPath id="clip0_181_1397">
<rect width="24" height="24" fill="white" transform="translate(8 8.5)"/>
</clipPath>
</defs>
</svg>
