<svg width="44" height="44" viewBox="0 0 44 44" fill="none" xmlns="http://www.w3.org/2000/svg">
<path d="M22 44C34.1504 44 44 34.1504 44 22C44 9.84964 34.1504 0 22 0C9.84964 0 0 9.84964 0 22C0 34.1504 9.84964 44 22 44Z" fill="white"/>
<path d="M23.7981 32.9956V22.9753H27.3492L27.8823 19.052H23.7981V16.5557C23.7981 15.4215 24.1282 14.652 25.8358 14.652H28V11.1545C27.6247 11.1076 26.3329 11 24.8283 11C21.6885 11 19.5377 12.8216 19.5377 16.169V19.0564H16V22.9797H19.5377V32.9956H23.7981Z" fill="#DC143C"/>
</svg>
