<svg width="40" height="41" viewBox="0 0 40 41" fill="none" xmlns="http://www.w3.org/2000/svg">
<rect y="0.5" width="40" height="40" rx="8" fill="#DC143C"/>
<g clip-path="url(#clip0_181_1398)">
<path d="M12 22.5V19.5C12 17.3783 12.8429 15.3434 14.3431 13.8431C15.8434 12.3429 17.8783 11.5 20 11.5C22.1217 11.5 24.1566 12.3429 25.6569 13.8431C27.1571 15.3434 28 17.3783 28 19.5V22.5" stroke="white" stroke-width="1.5" stroke-linecap="round" stroke-linejoin="round"/>
<path d="M26 27.5C26 29.157 23.314 30.5 20 30.5" stroke="white" stroke-width="1.5" stroke-linecap="round" stroke-linejoin="round"/>
<path d="M12 22.5C12 21.9696 12.2107 21.4609 12.5858 21.0858C12.9609 20.7107 13.4696 20.5 14 20.5H15C15.5304 20.5 16.0391 20.7107 16.4142 21.0858C16.7893 21.4609 17 21.9696 17 22.5V25.5C17 26.0304 16.7893 26.5391 16.4142 26.9142C16.0391 27.2893 15.5304 27.5 15 27.5H14C13.4696 27.5 12.9609 27.2893 12.5858 26.9142C12.2107 26.5391 12 26.0304 12 25.5V22.5Z" stroke="white" stroke-width="1.5" stroke-linecap="round" stroke-linejoin="round"/>
<path d="M23 22.5C23 21.9696 23.2107 21.4609 23.5858 21.0858C23.9609 20.7107 24.4696 20.5 25 20.5H26C26.5304 20.5 27.0391 20.7107 27.4142 21.0858C27.7893 21.4609 28 21.9696 28 22.5V25.5C28 26.0304 27.7893 26.5391 27.4142 26.9142C27.0391 27.2893 26.5304 27.5 26 27.5H25C24.4696 27.5 23.9609 27.2893 23.5858 26.9142C23.2107 26.5391 23 26.0304 23 25.5V22.5Z" stroke="white" stroke-width="1.5" stroke-linecap="round" stroke-linejoin="round"/>
</g>
<defs>
<clipPath id="clip0_181_1398">
<rect width="24" height="24" fill="white" transform="translate(8 8.5)"/>
</clipPath>
</defs>
</svg>
