<svg width="49" height="48" viewBox="0 0 49 48" fill="none" xmlns="http://www.w3.org/2000/svg">
<path opacity="0.3" d="M44.75 18.7498C44.75 20.3998 44.3 21.9748 43.475 23.3248C43.175 23.7748 42.875 24.2248 42.575 24.5998C41.825 25.4998 40.925 26.1748 39.875 26.6998C39.425 26.9248 38.975 27.1498 38.45 27.2998C37.625 27.5998 36.725 27.7498 35.75 27.7498C30.8 27.7498 26.75 23.6998 26.75 18.7498C26.75 17.7748 26.9 16.8748 27.2 15.9748C27.35 15.4498 27.575 14.9998 27.8 14.5498C29.3 11.6998 32.3 9.6748 35.825 9.6748C40.7 9.7498 44.75 13.7998 44.75 18.7498Z" fill="#DC143C"/>
<path d="M31.85 40.5H8C6.725 40.5 5.75 39.525 5.75 38.25V15.675C5.825 14.4 6.8 13.5 8 13.5H33.5C34.775 13.5 35.75 14.475 35.75 15.75V24.975C35.75 25.275 35.525 25.575 35.225 25.725L29.75 27.225V33.075C29.75 34.5 30.125 35.925 30.8 37.2C31.175 37.95 31.7 38.625 32.3 39.15C32.525 39.375 32.6 39.675 32.45 39.975C32.45 40.35 32.15 40.5 31.85 40.5ZM8 15C7.625 15 7.25 15.3 7.25 15.75V38.25C7.25 38.7 7.55 39 8 39H30.2C29.975 38.7 29.75 38.325 29.525 37.95C28.7 36.45 28.25 34.8 28.25 33.075V26.625C28.25 26.325 28.475 26.025 28.775 25.875L34.25 24.3V15.75C34.25 15.3 33.95 15 33.5 15H8Z" fill="black"/>
<path d="M35 16.5C34.55 16.5 34.25 16.2 34.25 15.75C34.25 15.3 33.95 15 33.5 15H8C7.625 15 7.25 15.3 7.25 15.75C7.25 16.125 6.875 16.425 6.5 16.5C6.125 16.5 5.75 16.125 5.75 15.75C5.75 14.25 5.975 12.675 6.425 11.25L7.7 6.9C8 5.925 8.9 5.25 9.875 5.25H31.625C32.6 5.25 33.5 5.925 33.8 6.825L35.15 11.25C35.525 12.75 35.75 14.25 35.75 15.75C35.75 16.2 35.45 16.5 35 16.5ZM9.875 6.75C9.575 6.75 9.275 6.975 9.125 7.275L7.85 11.625C7.625 12.3 7.475 12.9 7.4 13.575C7.625 13.5 7.775 13.5 8 13.5H33.5C33.725 13.5 33.875 13.5 34.1 13.575C34.025 12.975 33.875 12.375 33.65 11.775L32.3 7.35C32.225 7.05 31.925 6.825 31.55 6.825H9.875V6.75Z" fill="black"/>
<path d="M23.75 15H17.75C17.3 15 17 14.7 17 14.25V6C17 5.55 17.3 5.25 17.75 5.25H23.75C24.2 5.25 24.5 5.55 24.5 6V14.25C24.5 14.7 24.2 15 23.75 15ZM18.5 13.5H23V6.75H18.5V13.5Z" fill="#DC143C"/>
<path d="M17.75 21.75C17.6 21.75 17.45 21.75 17.375 21.675C17.15 21.525 17 21.225 17 21V14.25C17 13.8 17.3 13.5 17.75 13.5H23.75C24.2 13.5 24.5 13.8 24.5 14.25V21C24.5 21.225 24.35 21.525 24.125 21.675C23.9 21.825 23.6 21.825 23.375 21.675L22.25 21.075L21.05 21.675C20.825 21.75 20.6 21.75 20.375 21.675L19.25 21.075L18.125 21.675C17.975 21.75 17.9 21.75 17.75 21.75ZM19.25 19.5C19.4 19.5 19.475 19.5 19.55 19.575L20.75 20.175L21.95 19.575C22.175 19.5 22.4 19.5 22.625 19.575L23 19.8V15H18.5V19.8L18.875 19.575C18.95 19.5 19.1 19.5 19.25 19.5ZM35 36C34.775 36 34.625 35.925 34.475 35.775L32.6 33.9C32.3 33.6 32.3 33.15 32.6 32.85C32.9 32.55 33.35 32.55 33.65 32.85L35 34.2L38.225 30.975C38.525 30.675 38.975 30.675 39.275 30.975C39.575 31.275 39.575 31.725 39.275 32.025L35.525 35.775C35.375 35.925 35.225 36 35 36Z" fill="#DC143C"/>
<path d="M35.7498 42.75C35.6748 42.75 35.5998 42.75 35.5248 42.75C34.2498 42.375 33.0498 41.775 31.9998 40.95C31.7748 40.8 31.5498 40.575 31.2498 40.35C30.5748 39.675 29.9748 38.85 29.4498 38.025C28.6248 36.525 28.1748 34.875 28.1748 33.15V26.7C28.1748 26.4 28.3998 26.1 28.6998 25.95L35.4498 24C35.5998 24 35.7498 24 35.8248 24L42.5748 25.95C42.8748 26.025 43.0998 26.325 43.0998 26.7V33.15C43.0998 37.575 40.0998 41.55 35.8248 42.75C35.8998 42.75 35.8248 42.75 35.7498 42.75ZM29.7498 27.225V33.075C29.7498 34.5 30.1248 35.925 30.7998 37.2C31.1748 37.95 31.6998 38.625 32.2998 39.15C32.5248 39.3 32.6748 39.525 32.8998 39.675C33.7248 40.35 34.6998 40.875 35.6748 41.175C39.1998 40.05 41.6748 36.75 41.6748 33.075V27.225L35.7498 25.5L29.7498 27.225Z" fill="black"/>
<path d="M16.25 33H10.25C9.8 33 9.5 32.7 9.5 32.25C9.5 31.8 9.8 31.5 10.25 31.5H16.25C16.7 31.5 17 31.8 17 32.25C17 32.7 16.7 33 16.25 33ZM16.25 36.75H10.25C9.8 36.75 9.5 36.45 9.5 36C9.5 35.55 9.8 35.25 10.25 35.25H16.25C16.7 35.25 17 35.55 17 36C17 36.45 16.7 36.75 16.25 36.75Z" fill="#DC143C"/>
</svg>
