<svg width="18" height="20" viewBox="0 0 18 20" fill="none" xmlns="http://www.w3.org/2000/svg">
<path d="M8.70181 0.5L8.80464 0.50665L8.85606 0.51425L8.90921 0.5266L9.00594 0.5589C9.07275 0.58575 9.13626 0.621487 9.19504 0.6653L9.28567 0.7432L9.50788 0.9503C11.2658 2.54208 13.4876 3.39683 15.7726 3.36045L16.0706 3.35095C16.2655 3.34126 16.4577 3.40311 16.6164 3.5266C16.7752 3.65009 16.8914 3.82809 16.9464 4.0321C17.3746 5.62009 17.5057 7.28573 17.3317 8.93002C17.1578 10.5743 16.6824 12.1637 15.9339 13.6038C15.1854 15.0439 14.179 16.3052 12.9745 17.3129C11.77 18.3205 10.3919 19.054 8.92229 19.4696C8.77884 19.5101 8.62827 19.5101 8.48483 19.4696C7.01509 19.0541 5.63697 18.3207 4.43237 17.3131C3.22776 16.3055 2.22124 15.0441 1.47264 13.6041C0.72403 12.164 0.248608 10.5745 0.0746218 8.9302C-0.099364 7.28585 0.0316375 5.62016 0.459841 4.0321C0.514837 3.82809 0.631024 3.65009 0.789806 3.5266C0.948587 3.40311 1.14078 3.34126 1.33563 3.35095C3.72113 3.46982 6.06144 2.61374 7.89836 0.9503L8.12754 0.73655L8.2112 0.6653C8.26998 0.621487 8.33349 0.58575 8.4003 0.5589L8.4979 0.5266C8.53205 0.517607 8.56669 0.510944 8.6016 0.50665L8.70181 0.5ZM11.9348 7.42834C11.8539 7.34002 11.7578 7.26994 11.652 7.22214C11.5462 7.17433 11.4328 7.14972 11.3183 7.14972C11.2038 7.14972 11.0904 7.17433 10.9846 7.22214C10.8788 7.26994 10.7827 7.34002 10.7017 7.42834L7.83213 10.5557L6.70537 9.32834L6.62346 9.24949C6.44831 9.10185 6.22817 9.03242 6.00777 9.05531C5.78736 9.0782 5.58322 9.19169 5.43679 9.37273C5.29036 9.55376 5.21263 9.78877 5.21939 10.03C5.22614 10.2713 5.31688 10.5007 5.47317 10.6716L7.21603 12.5716L7.29794 12.6505C7.46561 12.7923 7.67497 12.8625 7.88675 12.848C8.09853 12.8335 8.29817 12.7352 8.44823 12.5716L11.9339 8.77164L12.0063 8.68234C12.1363 8.49956 12.2007 8.27132 12.1874 8.04044C12.1741 7.80957 12.084 7.59193 11.9339 7.42834H11.9348Z" fill="#4169E1"/>
</svg>
