<svg width="51" height="40" viewBox="0 0 51 40" fill="none" xmlns="http://www.w3.org/2000/svg">
<g clip-path="url(#clip0_129_2400)">
<path d="M24.8256 24.9239C24.8256 24.9239 23.1972 29.1785 19.2542 27.8848C19.2542 27.8848 18.9783 30.0414 18.8817 31.9309C18.7683 34.1603 18.8341 36.3141 18.9027 38.3925C18.9027 38.3925 24.0387 41.6162 31.282 38.9379C29.6409 29.8918 27.4104 24.7505 25.7918 21.998C25.4361 22.9365 25.1126 23.9099 24.8256 24.9239Z" fill="#CCCCCC"/>
<path d="M22.5995 16.4056C22.5995 16.4056 19.7528 22.9301 19.2809 27.6084C18.8091 32.2867 18.9029 38.3916 18.9029 38.3916C18.9029 38.3916 3.9066 32.2238 0.756115 15.5455C0.756115 15.5455 -0.945144 6.35664 0.756115 0C0.756115 0 16.7186 4.67832 22.5995 16.4056Z" fill="#F0F5FF"/>
<path d="M50.2187 0C50.2187 0 32.4024 4.53706 25.792 21.9972C27.412 24.7483 29.6426 29.8909 31.2822 38.9371C33.2579 38.207 35.3891 37.0392 37.6168 35.2448C37.6168 35.2448 54.8184 24.6084 50.2187 0Z" fill="white"/>
<path d="M25.3604 9.60156C27.5695 9.60156 29.3604 7.8107 29.3604 5.60156C29.3604 3.39242 27.5695 1.60156 25.3604 1.60156C23.1512 1.60156 21.3604 3.39242 21.3604 5.60156C21.3604 7.8107 23.1512 9.60156 25.3604 9.60156Z" fill="white"/>
</g>
<defs>
<clipPath id="clip0_129_2400">
<rect width="51" height="40" fill="white"/>
</clipPath>
</defs>
</svg>
