<svg width="44" height="44" viewBox="0 0 44 44" fill="none" xmlns="http://www.w3.org/2000/svg">
<path d="M22 44C34.1503 44 44 34.1504 44 22C44 9.84964 34.1503 0 22 0C9.84974 0 0 9.84964 0 22C0 34.1504 9.84974 44 22 44Z" fill="white"/>
<path d="M31.6206 19.6229C31.7728 19.5101 31.9996 19.6156 31.9996 19.7944V27.25C31.9996 28.2163 31.1599 29 30.1246 29H13.875C12.8397 29 12 28.2163 12 27.25V19.7981C12.0002 19.7572 12.0128 19.717 12.0361 19.6824C12.0595 19.6477 12.0928 19.6199 12.1322 19.6021C12.1717 19.5842 12.2157 19.5772 12.2593 19.5812C12.303 19.5856 12.3444 19.6013 12.379 19.6265C13.2539 20.261 14.4139 21.0666 18.3985 23.7683C19.2226 24.3297 20.6133 25.5109 22.0002 25.5036C23.3949 25.5146 24.8126 24.3078 25.6058 23.7683L31.6214 19.6229H31.6206ZM21.9998 24.3333C22.906 24.3479 24.2107 23.2689 24.867 22.8239L31.6406 18.1317C31.7527 18.0499 31.8434 17.9455 31.9056 17.8261C31.9679 17.7068 32.0002 17.5757 32 17.4428V16.75C32 15.7837 31.1603 15 30.125 15H13.875C12.8397 15 12 15.7837 12 16.75V17.4428C12 17.7126 12.133 17.9641 12.3594 18.1317C13.5546 19.003 13.9493 19.3129 19.1326 22.8239C19.7889 23.2689 21.0936 24.3479 21.9998 24.3333Z" fill="#DC143C"/>
</svg>
