<svg width="51" height="40" viewBox="0 0 51 40" fill="none" xmlns="http://www.w3.org/2000/svg">
<path d="M24.8256 24.9229C24.8256 24.9229 23.1972 29.1775 19.2542 27.8838C19.2542 27.8838 18.9783 30.0404 18.8817 31.9299C18.7683 34.1593 18.8341 36.3132 18.9027 38.3915C18.9027 38.3915 24.0387 41.6153 31.282 38.9369C29.6409 29.8908 27.4104 24.7495 25.7918 21.9971C25.4361 22.9355 25.1126 23.909 24.8256 24.9229Z" fill="#204AC8"/>
<path d="M22.5995 16.4056C22.5995 16.4056 19.7528 22.9301 19.2809 27.6084C18.8091 32.2867 18.9029 38.3916 18.9029 38.3916C18.9029 38.3916 3.9066 32.2238 0.756115 15.5455C0.756115 15.5455 -0.945144 6.35664 0.756115 0C0.756115 0 16.7186 4.67832 22.5995 16.4056Z" fill="#4169E1"/>
<path d="M50.2187 0C50.2187 0 32.4024 4.53706 25.792 21.9972C27.412 24.7483 29.6426 29.8909 31.2822 38.9371C33.2579 38.207 35.3891 37.0392 37.6168 35.2448C37.6168 35.2448 54.8184 24.6084 50.2187 0Z" fill="#7391E9"/>
<path d="M25.3604 9.60156C27.5695 9.60156 29.3604 7.8107 29.3604 5.60156C29.3604 3.39242 27.5695 1.60156 25.3604 1.60156C23.1512 1.60156 21.3604 3.39242 21.3604 5.60156C21.3604 7.8107 23.1512 9.60156 25.3604 9.60156Z" fill="#DC143C"/>
</svg>
