<svg width="34" height="34" viewBox="0 0 34 34" fill="none" xmlns="http://www.w3.org/2000/svg">
<path fill-rule="evenodd" clip-rule="evenodd" d="M12.0528 12.1979H15.7459C15.8265 12.1979 15.9043 12.2319 15.9626 12.2899C16.0196 12.348 16.0515 12.4273 16.0515 12.5109V15.9847C16.0515 16.0683 16.0196 16.1476 15.9626 16.2057C15.9043 16.2651 15.8265 16.2977 15.7459 16.2977H12.0528C11.8833 16.2977 11.7458 16.1575 11.7458 15.9847V12.5109C11.7458 12.3381 11.8833 12.1979 12.0528 12.1979ZM16.6932 2.691C16.6932 2.51823 16.8307 2.37944 17.0001 2.37944C17.1695 2.37944 17.307 2.51822 17.307 2.691V4.20914H18.7959C18.9612 4.2148 19.0918 4.35359 19.0918 4.52211C19.0918 4.69063 18.9612 4.82942 18.7959 4.83508H17.307V6.35322C17.307 6.52599 17.1695 6.66478 17.0001 6.66478C16.8307 6.66478 16.6932 6.526 16.6932 6.35322V4.83508H15.2043C15.039 4.82942 14.9084 4.69063 14.9084 4.52211C14.9084 4.35359 15.039 4.2148 15.2043 4.20914H16.6932V2.691ZM12.6931 7.41961H9.30702C9.22646 7.41961 9.1473 7.45218 9.09035 7.51024C9.0334 7.56972 9.00007 7.64903 9.00007 7.73258V10.725C9.00007 10.8071 9.0334 10.8878 9.09035 10.9459C9.1473 11.0039 9.22646 11.0379 9.30702 11.0379H10.0417V12.8747L1.68473 12.8733C1.51528 12.8747 1.37917 13.0135 1.37917 13.1863V16.1786C1.37917 16.2622 1.41111 16.3415 1.46806 16.401C1.52639 16.459 1.60417 16.4916 1.68473 16.4916H2.41945V29.5757H1.30695C1.1375 29.5757 1 29.7159 1 29.8887V32.6884C1 32.7706 1.03194 32.8499 1.09028 32.9094C1.14723 32.9674 1.225 33 1.30695 33H32.6931C32.8625 33 33 32.8612 33 32.6884V29.8887C33 29.8051 32.9681 29.7258 32.9097 29.6677C32.8528 29.6083 32.775 29.5757 32.6931 29.5757H31.5792V16.4931H32.3139C32.3958 16.4931 32.4736 16.4591 32.5319 16.401C32.5889 16.3415 32.6208 16.2622 32.6208 16.1801V13.1863C32.6208 13.0135 32.4833 12.8747 32.3139 12.8733H23.9583V11.038H24.7416C24.8222 11.038 24.9 11.004 24.9583 10.9459C25.0152 10.8878 25.0472 10.8071 25.0472 10.725V7.73261C25.0472 7.64906 25.0152 7.56975 24.9583 7.51169C24.9 7.45221 24.8222 7.41963 24.7416 7.41963H21.3069V1.31156C21.3069 1.22942 21.2749 1.15011 21.2166 1.09064C21.1596 1.03257 21.0819 1 20.9999 1H12.9999C12.8304 1 12.6943 1.13878 12.6943 1.31156V7.41963L12.6931 7.41961ZM20.6932 7.41961V1.62477H13.3058V7.41961H20.6932ZM20.7862 25.2776V29.5755H23.346V11.0378H10.6558V29.5755H13.2155V25.2776H12.2905C12.121 25.2776 11.9849 25.1374 11.9849 24.9646C11.9849 24.7919 12.121 24.6517 12.2905 24.6517H21.7127C21.8822 24.6517 22.0197 24.7919 22.0197 24.9646C22.0197 25.1374 21.8822 25.2776 21.7127 25.2776H20.7862ZM20.1737 29.5755H17.3293V25.2776H20.1737V29.5755ZM13.8263 25.2776H16.7152V29.5755H13.8263V25.2776ZM30.9667 29.5755H23.9583V16.4929H30.9667V29.5755ZM23.9583 15.8672V13.4993H32.0084V15.8672H23.9583ZM3.03301 16.4931H10.0414V29.5757H3.03301V16.4931ZM10.0414 13.4993V15.8672H1.99122V13.4993H10.0414ZM12.9997 8.04564H24.433V10.4135H9.61341V8.04564H12.9997ZM29.3319 27.0152H25.6402C25.4707 27.0152 25.3332 26.875 25.3332 26.7022V23.1788C25.3332 23.006 25.4707 22.8658 25.6402 22.8658H29.3319C29.5013 22.8658 29.6389 23.006 29.6389 23.1788V26.7022C29.6389 26.875 29.5013 27.0152 29.3319 27.0152ZM25.9458 26.3892V23.4889H29.025V26.3892H25.9458ZM29.025 18.2774V21.1282H25.9458V18.2774H29.025ZM25.6403 17.6528H29.332C29.5015 17.6528 29.639 17.7931 29.639 17.9644V21.4397C29.639 21.5232 29.607 21.6025 29.5487 21.662C29.4917 21.7201 29.414 21.7527 29.332 21.7527H25.6403C25.5583 21.7527 25.4805 21.7201 25.4236 21.662C25.3653 21.6025 25.3333 21.5232 25.3333 21.4397V17.9658C25.3333 17.8823 25.3653 17.803 25.4236 17.7449C25.4805 17.6854 25.5583 17.6528 25.6403 17.6528ZM4.97349 26.3893V23.489H8.05269V26.3893H4.97349ZM8.35961 27.0153H4.66786C4.49841 27.0153 4.36091 26.8751 4.36091 26.7023V23.1789C4.36091 23.0061 4.49841 22.8659 4.66786 22.8659H8.35961C8.52905 22.8659 8.66655 23.0061 8.66655 23.1789V26.7023C8.66655 26.8751 8.52905 27.0153 8.35961 27.0153ZM4.66786 17.6531H8.35961C8.44155 17.6531 8.51933 17.6856 8.57628 17.7437C8.63461 17.8032 8.66656 17.8825 8.66656 17.9646V21.4399C8.66656 21.5235 8.63461 21.6028 8.57628 21.6622C8.51933 21.7203 8.44155 21.7529 8.35961 21.7529H4.66786C4.58591 21.7529 4.50813 21.7203 4.45119 21.6622C4.39286 21.6028 4.36091 21.5235 4.36091 21.4399V17.966C4.36091 17.7933 4.49841 17.6531 4.66786 17.6531ZM8.05397 18.2776V21.1284H4.97339V18.2776H8.05397ZM32.3876 32.3757H1.61234V30.2005H32.3876V32.3757ZM21.9474 21.5604H18.2542C18.0848 21.5604 17.9473 21.4202 17.9473 21.2489V17.7722C17.9473 17.5994 18.0848 17.4606 18.2542 17.4606H21.9474C22.0279 17.4606 22.1057 17.4932 22.164 17.5512C22.221 17.6107 22.2543 17.69 22.2543 17.7722V21.2489C22.2543 21.331 22.221 21.4103 22.164 21.4698C22.1057 21.5278 22.0279 21.5604 21.9474 21.5604ZM18.5613 20.9359V18.0851H21.6405V20.9359H18.5613ZM12.36 20.9359V18.0851H15.4392V20.9359H12.36ZM15.7461 21.5618L12.0529 21.5604C11.8835 21.5604 11.746 21.4202 11.746 21.2489V17.7722C11.746 17.5994 11.8835 17.4606 12.0529 17.4606H15.7461C15.8267 17.4606 15.9044 17.4932 15.9628 17.5512C16.0197 17.6107 16.0517 17.69 16.0517 17.7722V21.2489C16.0517 21.331 16.0197 21.4103 15.9628 21.4698C15.9044 21.5278 15.8267 21.5604 15.7461 21.5604V21.5618ZM21.6405 12.8239V15.6747L18.5613 15.6732V12.8239L21.6405 12.8239ZM18.2544 12.1979H21.9476C22.0281 12.1979 22.1059 12.2305 22.1643 12.29C22.2212 12.348 22.2545 12.4273 22.2545 12.5109V15.9848C22.2545 16.0683 22.2212 16.1476 22.1643 16.2057C22.1059 16.2652 22.0281 16.2977 21.9476 16.2977H18.2544C18.085 16.2977 17.9475 16.1575 17.9475 15.9848V12.5109C17.9475 12.3381 18.085 12.1979 18.2544 12.1979ZM15.4391 12.8239H12.3599V15.6747H15.4391V12.8239Z" fill="#006BFA" stroke="#006BFA" stroke-width="0.4"/>
</svg>
