<svg width="34" height="34" viewBox="0 0 34 34" fill="none" xmlns="http://www.w3.org/2000/svg">
<path fill-rule="evenodd" clip-rule="evenodd" d="M9.19562 11.0063C9.19556 10.2244 9.45915 9.4668 9.94148 8.86241C10.4238 8.25803 11.095 7.84432 11.8408 7.69176C12.5865 7.53921 13.3606 7.65726 14.0312 8.0258C14.7018 8.39433 15.2274 8.99055 15.5183 9.71286C15.8093 10.4352 15.8477 11.2389 15.6269 11.987C15.4062 12.7352 14.94 13.3815 14.3077 13.8158C13.6755 14.2501 12.9164 14.4456 12.1597 14.3689C11.403 14.2922 10.6956 13.9481 10.158 13.3952C9.85244 13.0818 9.61014 12.7094 9.44499 12.2995C9.27984 11.8895 9.19509 11.45 9.19562 11.0063ZM10.6765 9.14974C10.2585 9.57903 9.9982 10.1441 9.93997 10.7486C9.88174 11.3531 10.0292 11.9597 10.3572 12.4649C10.6851 12.9702 11.1734 13.3429 11.7386 13.5195C12.3039 13.6961 12.9112 13.6657 13.4572 13.4335C14.0031 13.2012 14.4538 12.7816 14.7325 12.2459C15.0112 11.7103 15.1006 11.0919 14.9856 10.496C14.8705 9.90021 14.5581 9.36383 14.1015 8.97832C13.6449 8.5928 13.0725 8.382 12.4817 8.38183C12.1464 8.38128 11.8144 8.44883 11.5046 8.58062C11.1948 8.7124 10.9134 8.90581 10.6765 9.14974ZM10.7142 11.3683L11.9724 12.3852C12.0102 12.4158 12.0535 12.4384 12.0997 12.4517C12.146 12.4651 12.1944 12.4689 12.2421 12.463C12.2898 12.4572 12.336 12.4417 12.3779 12.4175C12.4198 12.3933 12.4566 12.3608 12.4863 12.322L12.4884 12.319L14.299 10.1685C14.3304 10.1312 14.3543 10.0879 14.3694 10.0411C14.3845 9.99425 14.3905 9.94483 14.387 9.89563C14.3836 9.84642 14.3707 9.79841 14.3492 9.75431C14.3277 9.71022 14.2979 9.67092 14.2616 9.63865C14.2254 9.60638 14.1832 9.58177 14.1377 9.56624C14.0922 9.5507 14.0441 9.54454 13.9963 9.54811C13.9484 9.55167 13.9017 9.5649 13.8588 9.58702C13.8159 9.60914 13.7777 9.63973 13.7463 9.67704L12.1506 11.572L11.1673 10.7766C11.0909 10.7148 10.9938 10.6868 10.8973 10.6986C10.8009 10.7104 10.7129 10.7612 10.6528 10.8397C10.5928 10.9182 10.5655 11.018 10.577 11.1172C10.5885 11.2164 10.6378 11.3065 10.7142 11.3683ZM8.88337 14.4034C9.78648 15.6171 11.0505 16.4942 12.4831 16.9013C13.9146 16.4938 15.1776 15.6168 16.08 14.4037C17.0141 13.156 17.5227 11.6268 17.5274 10.0522V6.60722L12.4831 5.11199L7.43594 6.60722V10.0522C7.44067 11.6268 7.94932 13.156 8.88337 14.4037V14.4034ZM12.3821 17.6505C12.4445 17.669 12.5106 17.6698 12.5734 17.6527C14.1992 17.2162 15.6367 16.2343 16.6583 14.8626C17.6913 13.4834 18.2542 11.793 18.2601 10.0522V6.32565C18.26 6.24416 18.2342 6.1649 18.1864 6.09985C18.1387 6.0348 18.0717 5.9875 17.9955 5.9651L12.5898 4.36272C12.5227 4.34241 12.4513 4.34241 12.3842 4.36272L7.00313 5.95669C6.91884 5.97268 6.84265 6.01852 6.78782 6.08626C6.73298 6.154 6.70296 6.23935 6.70297 6.32748V10.0522C6.70781 11.7936 7.27023 13.4849 8.30333 14.8648C9.32319 16.2343 10.7577 17.2152 12.3803 17.6527L12.3821 17.6505ZM31.1042 12.5311L29.6134 11.8488L29.6098 11.8572L24.5907 23.4519L26.0812 24.1343L31.1042 12.5318V12.5311ZM27.7527 10.1751L31.4029 11.8458L32.2092 9.98384C32.2883 9.79867 32.2928 9.58878 32.2217 9.40019C32.1506 9.21161 32.0096 9.05973 31.8297 8.97788L29.5365 7.92767C29.3569 7.84597 29.1531 7.84082 28.9698 7.91334C28.7865 7.98585 28.6386 8.13013 28.5586 8.31455L27.7527 10.1758V10.1751ZM23.3321 26.378L22.7254 26.8366L22.3765 23.2618L23.9595 23.9843L25.5424 24.7087L23.373 26.3462C23.3589 26.3555 23.3453 26.3658 23.3325 26.3769L23.3321 26.378ZM2.14052 5.14307H3.95213C4.07719 5.1424 4.19693 5.09102 4.28536 5.00009C4.37379 4.90917 4.42376 4.78604 4.42441 4.65746V2.29777L2.14052 5.14307ZM5.15702 1.75365V4.65746C5.15599 4.9858 5.02868 5.3004 4.80287 5.53258C4.57707 5.76475 4.27111 5.89566 3.95177 5.89672H1.73119V29.3963C1.73175 29.5252 1.78195 29.6486 1.87079 29.7396C1.95963 29.8305 2.07989 29.8815 2.20525 29.8815H22.7297C22.8547 29.8811 22.9745 29.8298 23.063 29.7389C23.1515 29.648 23.2014 29.5249 23.202 29.3963V27.4089L22.6426 27.8312C22.5906 27.8705 22.5294 27.8949 22.4653 27.9019C22.4011 27.909 22.3363 27.8985 22.2774 27.8714C22.2185 27.8444 22.1677 27.8018 22.13 27.748C22.0923 27.6941 22.0691 27.631 22.0629 27.565L21.5874 22.6913C21.5806 22.6231 21.5923 22.5542 21.6212 22.4924L23.2023 18.8401V2.23926C23.2017 2.11068 23.1517 1.98755 23.0633 1.89663C22.9748 1.8057 22.8551 1.75432 22.73 1.75365H5.15702ZM5.31244 23.1912C5.21529 23.1912 5.12212 23.1515 5.05342 23.0809C4.98472 23.0103 4.94613 22.9145 4.94613 22.8146C4.94613 22.7147 4.98472 22.6189 5.05342 22.5482C5.12212 22.4776 5.21529 22.4379 5.31244 22.4379H19.6502C19.7474 22.4379 19.8406 22.4776 19.9093 22.5482C19.9779 22.6189 20.0165 22.7147 20.0165 22.8146C20.0165 22.9145 19.9779 23.0103 19.9093 23.0809C19.8406 23.1515 19.7474 23.1912 19.6502 23.1912H5.31244ZM16.0448 26.5554C15.9496 26.5523 15.8593 26.5113 15.7929 26.441C15.7266 26.3706 15.6896 26.2765 15.6896 26.1786C15.6896 26.0806 15.7266 25.9865 15.7929 25.9162C15.8593 25.8458 15.9496 25.8048 16.0448 25.8017H19.6502C19.6993 25.8002 19.7482 25.8087 19.794 25.827C19.8398 25.8452 19.8816 25.8727 19.9169 25.9079C19.9521 25.943 19.9802 25.9851 19.9993 26.0316C20.0184 26.0781 20.0283 26.1281 20.0283 26.1786C20.0283 26.2291 20.0184 26.279 19.9993 26.3255C19.9802 26.372 19.9521 26.4141 19.9169 26.4493C19.8816 26.4844 19.8398 26.5119 19.794 26.5301C19.7482 26.5484 19.6993 26.557 19.6502 26.5554H16.0448ZM5.31244 26.5554C5.21722 26.5523 5.12689 26.5113 5.06058 26.441C4.99427 26.3706 4.95719 26.2765 4.95719 26.1786C4.95719 26.0806 4.99427 25.9865 5.06058 25.9162C5.12689 25.8458 5.21722 25.8048 5.31244 25.8017H14.512C14.5611 25.8002 14.61 25.8087 14.6558 25.827C14.7016 25.8452 14.7434 25.8727 14.7786 25.9079C14.8139 25.943 14.8419 25.9851 14.8611 26.0316C14.8802 26.0781 14.8901 26.1281 14.8901 26.1786C14.8901 26.2291 14.8802 26.279 14.8611 26.3255C14.8419 26.372 14.8139 26.4141 14.7786 26.4493C14.7434 26.4844 14.7016 26.5119 14.6558 26.5301C14.61 26.5484 14.5611 26.557 14.512 26.5554H5.31244ZM8.61273 19.8296C8.51751 19.8265 8.42719 19.7855 8.36088 19.7152C8.29457 19.6448 8.25749 19.5507 8.25749 19.4528C8.25749 19.3548 8.29457 19.2607 8.36088 19.1903C8.42719 19.12 8.51751 19.079 8.61273 19.0759H19.6502C19.6993 19.0744 19.7482 19.0829 19.794 19.1012C19.8398 19.1194 19.8816 19.1469 19.9169 19.182C19.9521 19.2172 19.9802 19.2593 19.9993 19.3058C20.0184 19.3523 20.0283 19.4023 20.0283 19.4528C20.0283 19.5032 20.0184 19.5532 19.9993 19.5997C19.9802 19.6462 19.9521 19.6883 19.9169 19.7235C19.8816 19.7586 19.8398 19.7861 19.794 19.8043C19.7482 19.8226 19.6993 19.8311 19.6502 19.8296H8.61273ZM5.31244 19.8296C5.21722 19.8265 5.12689 19.7855 5.06058 19.7152C4.99427 19.6448 4.95719 19.5507 4.95719 19.4528C4.95719 19.3548 4.99427 19.2607 5.06058 19.1903C5.12689 19.12 5.21722 19.079 5.31244 19.0759H7.07959C7.12868 19.0744 7.17757 19.0829 7.22337 19.1012C7.26917 19.1194 7.31094 19.1469 7.34621 19.182C7.38147 19.2172 7.40951 19.2593 7.42865 19.3058C7.4478 19.3523 7.45767 19.4023 7.45767 19.4528C7.45767 19.5032 7.4478 19.5532 7.42865 19.5997C7.40951 19.6462 7.38147 19.6883 7.34621 19.7235C7.31094 19.7586 7.26917 19.7861 7.22337 19.8043C7.17757 19.8226 7.12868 19.8311 7.07959 19.8296H5.31244ZM4.37783 30.6352V31.7611C4.37728 31.8829 4.42148 32.0005 4.50159 32.0902C4.50682 32.0947 4.5118 32.0994 4.51652 32.1045C4.56021 32.1496 4.61213 32.1855 4.6693 32.2101C4.72648 32.2346 4.7878 32.2473 4.84975 32.2474H25.3763C25.5013 32.2469 25.621 32.1956 25.7094 32.1047C25.7978 32.0138 25.8477 31.8907 25.8483 31.7622V25.4105L23.9346 26.8556V29.3963C23.9335 29.7246 23.8061 30.0391 23.5803 30.2712C23.3545 30.5033 23.0486 30.6341 22.7293 30.6352H4.37783ZM25.8483 12.7271L23.9346 17.1463V4.11846H25.376C25.5011 4.11884 25.6209 4.17008 25.7094 4.26098C25.7979 4.35189 25.8478 4.47509 25.8483 4.6037V12.7271ZM26.5595 12.9279L27.4539 10.8618L28.9448 11.5442L28.9416 11.5518L23.9232 23.1462L22.4327 22.4642L23.8908 19.1001C23.9006 19.0816 23.9089 19.0624 23.9157 19.0426L26.5371 12.9867C26.5471 12.9684 26.5554 12.9492 26.562 12.9293L26.5595 12.9279ZM23.9346 3.3648V2.23926C23.9335 1.91092 23.8062 1.59632 23.5804 1.36414C23.3546 1.13197 23.0487 1.00106 22.7293 1H4.69007C4.63616 0.999957 4.58291 1.0122 4.53414 1.03585C4.48538 1.05949 4.44232 1.09396 4.40806 1.13676L1.10278 5.2557C1.04462 5.31674 1.00838 5.3963 1 5.48132C1 5.49082 1 5.49997 1 5.50984V29.3963C1.00113 29.7246 1.12848 30.0391 1.35427 30.2712C1.58007 30.5033 1.88598 30.6341 2.20525 30.6352H3.64664V31.7611C3.64704 32.0777 3.7657 32.3821 3.97809 32.6113C3.9852 32.6201 3.99232 32.6281 4.00014 32.6362C4.11176 32.7515 4.24443 32.843 4.39054 32.9054C4.53665 32.9678 4.69331 33 4.85153 33H25.3763C25.6955 32.9988 26.0014 32.8679 26.2271 32.6359C26.4528 32.4038 26.5801 32.0893 26.5812 31.7611V24.8214C26.5914 24.804 26.6 24.7858 26.6072 24.7669L32.8745 10.2899C33.0318 9.92296 33.0416 9.50692 32.9017 9.1326C32.7618 8.75828 32.4835 8.45605 32.1277 8.29188L29.8346 7.24166C29.4777 7.07963 29.073 7.06944 28.7089 7.21334C28.3447 7.35724 28.0508 7.64351 27.8914 8.00958L26.9369 10.2142L26.5812 11.0348V4.6037C26.5807 4.2753 26.4535 3.96052 26.2277 3.72831C26.0019 3.4961 25.6957 3.36538 25.3763 3.3648H23.9346Z" fill="#FF5630" stroke="#FF5630" stroke-width="0.4"/>
</svg>
