<svg width="51" height="51" viewBox="0 0 51 51" fill="none" xmlns="http://www.w3.org/2000/svg">
<path d="M32.3828 0.210938C31.2782 0.210938 30.3828 1.10637 30.3828 2.21094V25.2109C30.3828 32.0469 32.1732 37.6458 35.7539 42.0078C38.9149 45.8462 43.0548 48.559 48.1734 50.1461C49.4007 50.5266 50.5977 49.5716 50.5977 48.2867V41.2351C50.5977 40.3589 50.0224 39.5961 49.207 39.2754C47.9436 38.7784 46.8772 38.1918 46.0078 37.5156C44.8359 36.6693 43.9245 35.6276 43.2734 34.3906C42.6224 33.2188 42.1667 31.8516 41.9062 30.2891C41.7109 28.7917 41.6133 27.099 41.6133 25.2109V24.5742C41.6133 23.4696 42.5087 22.5742 43.6133 22.5742H48.5977C49.7022 22.5742 50.5977 21.6788 50.5977 20.5742V2.21094C50.5977 1.10637 49.7022 0.210938 48.5977 0.210938H32.3828ZM2.20703 0.210938C1.10246 0.210938 0.207031 1.10637 0.207031 2.21094V25.2109C0.207031 32.0469 1.9974 37.6458 5.57812 42.0078C8.73915 45.8462 12.879 48.559 17.9977 50.1461C19.2249 50.5266 20.4219 49.5716 20.4219 48.2867V41.2351C20.4219 40.3589 19.8466 39.5961 19.0312 39.2754C17.7678 38.7784 16.7014 38.1918 15.832 37.5156C14.6602 36.6693 13.7487 35.6276 13.0977 34.3906C12.4466 33.2188 11.9909 31.8516 11.7305 30.2891C11.5352 28.7917 11.4375 27.099 11.4375 25.2109V24.5742C11.4375 23.4696 12.3329 22.5742 13.4375 22.5742H18.4219C19.5264 22.5742 20.4219 21.6788 20.4219 20.5742V2.21094C20.4219 1.10637 19.5264 0.210938 18.4219 0.210938H2.20703Z" fill="#DC143C"/>
</svg>
