<svg width="32" height="30" viewBox="0 0 32 30" fill="none" xmlns="http://www.w3.org/2000/svg">
<path d="M31.5636 24.4529H27.0384V21.5532C28.6843 21.4064 30.1463 20.4437 30.9302 18.988C31.7128 17.5337 31.7128 15.7832 30.9302 14.3288C30.1462 12.8745 28.6842 11.9105 27.0384 11.7649V5.25433C27.0372 3.91364 26.5035 2.62917 25.556 1.68164C24.6086 0.732965 23.3228 0.200526 21.9833 0.199219H2.43747C1.09168 0.200496 0.00254959 1.28962 0 2.63541V10.9948C0 11.2348 0.195357 11.4302 0.436666 11.4302H4.00282V24.7374C4.0041 26.0806 4.53781 27.3677 5.48652 28.3163C6.43519 29.2662 7.72355 29.8 9.06542 29.8013H27.0854C28.3891 29.8 29.6378 29.2816 30.5584 28.361C31.479 27.4391 31.9974 26.1917 32 24.888C32 24.7731 31.954 24.662 31.8723 24.5803C31.7893 24.4986 31.6798 24.4529 31.5636 24.4529ZM26.1663 24.4529H13.8767C13.7618 24.4529 13.6507 24.4989 13.569 24.5806C13.4872 24.6623 13.4413 24.7734 13.4413 24.8883C13.4387 27.1202 11.6307 28.9281 9.39888 28.9307H9.06563C6.75202 28.9269 4.87647 27.0512 4.87385 24.7376V2.63565C4.87385 2.06236 4.67084 1.50821 4.30183 1.07024H21.9835C24.2933 1.07279 26.1639 2.94464 26.1665 5.2545V11.7664C24.4313 11.9222 22.9067 12.9845 22.1597 14.5589H15.9237C15.6824 14.5589 15.487 14.7542 15.487 14.9943C15.487 15.2356 15.6824 15.4309 15.9237 15.4309H21.843C21.6272 16.2698 21.6374 17.1508 21.8711 17.9846H15.9237C15.8062 17.9808 15.6913 18.0255 15.607 18.1072C15.5228 18.1902 15.4755 18.3025 15.4755 18.42C15.4755 18.5375 15.5228 18.6511 15.607 18.7328C15.6913 18.8145 15.8062 18.8592 15.9237 18.8554H22.2084C22.9719 20.3787 24.4684 21.3988 26.1652 21.5533L26.1663 24.4529ZM6.61657 6.7882C6.61657 6.67329 6.66254 6.5622 6.74425 6.48048C6.82725 6.39877 6.93833 6.3528 7.05452 6.3528H15.6094C15.8443 6.36046 16.032 6.55326 16.032 6.78947C16.032 7.0244 15.8443 7.21848 15.6094 7.22486H7.05452C6.93833 7.22486 6.82725 7.17889 6.74425 7.09717C6.66254 7.01545 6.61657 6.90439 6.61657 6.7882ZM16.9359 6.7882C16.9359 6.54815 17.1299 6.35281 17.3713 6.35281H23.9891C24.224 6.36047 24.4117 6.55327 24.4117 6.78948C24.4117 7.02441 24.224 7.21849 23.9891 7.22487H17.3713C17.2551 7.22487 17.1453 7.1789 17.0635 7.09718C16.9818 7.01546 16.9359 6.90439 16.9359 6.7882ZM19.8841 9.33932L7.05441 9.3406C6.81309 9.3406 6.61775 9.14524 6.61775 8.90394C6.61775 8.66389 6.81311 8.46854 7.05441 8.46854H19.8828C20.1241 8.46854 20.3194 8.6639 20.3194 8.90394C20.3194 9.14526 20.1241 9.3406 19.8828 9.3406L19.8841 9.33932ZM24.4247 8.90393C24.4247 9.02013 24.3787 9.13121 24.2982 9.21293C24.2165 9.29465 24.1054 9.34061 23.9893 9.34061H21.6462C21.4062 9.34061 21.2109 9.14525 21.2109 8.90394C21.2109 8.6639 21.4062 8.46855 21.6462 8.46855H23.9893C24.2293 8.46855 24.4247 8.6639 24.4247 8.90393ZM24.4247 11.0197C24.4259 11.1359 24.38 11.2469 24.2982 11.3287C24.2165 11.4117 24.1042 11.4576 23.9893 11.4563H13.417C13.1807 11.45 12.993 11.2572 12.993 11.021C12.993 10.7847 13.1807 10.5919 13.417 10.5856H23.9893C24.2293 10.5856 24.4234 10.7796 24.4247 11.0197ZM12.0905 11.0197C12.0918 11.1359 12.0458 11.2469 11.9641 11.3287C11.8811 11.4117 11.77 11.4576 11.6551 11.4563H7.05476C6.93729 11.4602 6.82238 11.4155 6.73811 11.3338C6.65383 11.252 6.60659 11.1384 6.60659 11.0209C6.60659 10.9035 6.65383 10.7911 6.73811 10.7081C6.82238 10.6264 6.93729 10.5817 7.05476 10.5855H11.6551C11.8952 10.5855 12.0893 10.7796 12.0905 11.0197ZM20.6453 13.6627C20.6453 13.7789 20.5994 13.8887 20.5177 13.9704C20.4359 14.0521 20.3249 14.0981 20.2099 14.0981H13.3009C13.1834 14.1019 13.0698 14.0572 12.9855 13.9755C12.9012 13.8938 12.8527 13.7802 12.8527 13.6627C12.8527 13.5452 12.9012 13.4329 12.9855 13.3499C13.0698 13.2682 13.1834 13.2235 13.3009 13.2273H20.2099C20.45 13.2273 20.6453 13.4227 20.6453 13.6627ZM12.8655 14.9944C12.8655 14.7544 13.0609 14.559 13.3009 14.559H14.7067C14.948 14.559 15.1421 14.7544 15.1421 14.9944C15.1421 15.2358 14.948 15.4311 14.7067 15.4311H13.3009C13.0609 15.4311 12.8655 15.2357 12.8655 14.9944ZM12.8655 18.42C12.8655 18.3051 12.9115 18.194 12.9932 18.1123C13.0749 18.0306 13.186 17.9846 13.3009 17.9846H14.7067C14.9429 17.991 15.1306 18.1838 15.1306 18.42C15.1306 18.6562 14.9429 18.849 14.7067 18.8554H13.3009C13.0609 18.8554 12.8655 18.6614 12.8655 18.42ZM13.3009 16.6516H20.21C20.4462 16.6593 20.6339 16.8521 20.6339 17.0883C20.6339 17.3245 20.4462 17.5173 20.21 17.5237H13.3009C13.1834 17.5275 13.0698 17.4828 12.9855 17.4011C12.9013 17.3181 12.8527 17.2057 12.8527 17.0883C12.8527 16.9708 12.9013 16.8572 12.9855 16.7754C13.0698 16.6937 13.1834 16.6491 13.3009 16.6516ZM15.9235 21.4092L23.9894 21.4105C24.2243 21.4169 24.412 21.6097 24.412 21.8459C24.412 22.0821 24.2243 22.2749 23.9894 22.2813H15.9235C15.806 22.2851 15.6911 22.2404 15.6069 22.1587C15.5226 22.077 15.4753 21.9633 15.4753 21.8459C15.4753 21.7284 15.5226 21.616 15.6069 21.533C15.6911 21.4513 15.806 21.4066 15.9235 21.4105V21.4092ZM15.1421 21.8484C15.1421 21.9634 15.0961 22.0744 15.0144 22.1562C14.9327 22.2379 14.8229 22.2838 14.7067 22.2838H13.3009C13.1834 22.2877 13.0698 22.243 12.9855 22.16C12.9012 22.0783 12.8527 21.9659 12.8527 21.8484C12.8527 21.7297 12.9012 21.6173 12.9855 21.5356C13.0698 21.4539 13.1834 21.4092 13.3009 21.4118H14.7067C14.8229 21.4118 14.9327 21.4577 15.0144 21.5395C15.0961 21.6212 15.1421 21.7323 15.1421 21.8484ZM13.3009 20.0813L20.21 20.08C20.4462 20.0864 20.6339 20.2805 20.6339 20.5167C20.6339 20.7517 20.4462 20.9457 20.21 20.9521H13.3009C13.1834 20.9547 13.0698 20.9112 12.9855 20.8282C12.9013 20.7465 12.8527 20.6342 12.8527 20.5167C12.8527 20.398 12.9013 20.2856 12.9855 20.2039C13.0698 20.1209 13.1834 20.0775 13.3009 20.08V20.0813ZM9.94035 12.9974C9.40154 12.9974 8.91633 13.3217 8.71076 13.8184C8.50392 14.3163 8.61755 14.8896 8.99933 15.2702C9.37984 15.6507 9.95186 15.7656 10.4498 15.5587C10.9478 15.3531 11.2721 14.8679 11.2721 14.3291C11.2708 13.5937 10.6758 12.9987 9.94035 12.9974ZM9.94035 14.7888C9.75521 14.7888 9.58668 14.6764 9.51643 14.5041C9.44493 14.333 9.48451 14.1351 9.61603 14.0036C9.74754 13.8721 9.94545 13.8325 10.1165 13.904C10.2889 13.9755 10.4 14.1427 10.4 14.3292C10.4 14.582 10.1944 14.7875 9.94035 14.7888ZM9.94035 16.4232C9.40281 16.4232 8.91633 16.7475 8.71076 17.2454C8.50519 17.7421 8.61883 18.3154 8.99933 18.6959C9.38111 19.0764 9.95313 19.19 10.4511 18.9845C10.9478 18.7776 11.2721 18.2924 11.2721 17.7536C11.2708 17.0194 10.6745 16.4244 9.94035 16.4232ZM9.94035 18.212C9.75521 18.212 9.58668 18.0997 9.51643 17.9286C9.44493 17.7562 9.48451 17.5583 9.61603 17.4267C9.74754 17.2965 9.94545 17.2569 10.1165 17.3284C10.2889 17.3999 10.4013 17.5672 10.4 17.7536C10.4 18.0077 10.1944 18.2133 9.94034 18.2146L9.94035 18.212ZM9.94035 19.8476C9.40281 19.8476 8.91633 20.172 8.71076 20.6686C8.50519 21.1666 8.61883 21.7386 8.99933 22.1204C9.37984 22.5009 9.95313 22.6145 10.4498 22.409C10.9478 22.2021 11.2721 21.7169 11.2721 21.1781C11.2708 20.4439 10.6745 19.8502 9.94035 19.8489L9.94035 19.8476ZM9.94035 21.6391V21.6378C9.75521 21.6378 9.58668 21.5267 9.51643 21.3543C9.44493 21.1832 9.48451 20.9853 9.61603 20.8538C9.74754 20.7223 9.94545 20.6827 10.1165 20.7542C10.2889 20.8257 10.4 20.993 10.4 21.1781C10.4013 21.3007 10.3527 21.4182 10.2659 21.505C10.1804 21.5918 10.0629 21.6416 9.94033 21.6416L9.94035 21.6391Z" fill="#FFB535"/>
</svg>
