<svg width="34" height="28" viewBox="0 0 34 28" fill="none" xmlns="http://www.w3.org/2000/svg">
<path fill-rule="evenodd" clip-rule="evenodd" d="M22.7778 11.9303C25.4778 11.9303 27.6667 9.72849 27.6667 7.01236C27.6667 4.29623 25.4778 2.09437 22.7778 2.09437C20.0777 2.09437 17.8889 4.29623 17.8889 7.01236C17.8889 9.72849 20.0777 11.9303 22.7778 11.9303ZM22.7778 12.8245C25.9688 12.8245 28.5556 10.2223 28.5556 7.01236C28.5556 3.80239 25.9688 1.2002 22.7778 1.2002C19.5868 1.2002 17 3.80239 17 7.01236C17 10.2223 19.5868 12.8245 22.7778 12.8245Z" fill="#8678D0" stroke="#8678D0"/>
<path d="M1.57114 9.56008C1.25559 9.56008 1 9.81719 1 10.1346C1 10.4521 1.25559 10.7092 1.57114 10.7092H5.54629C6.29164 10.7092 6.84564 11.2564 6.84564 11.92V23.5215C6.84564 24.1851 6.29164 24.7309 5.54629 24.7309H1.57114C1.25559 24.7309 1 24.988 1 25.3055C1 25.6229 1.25559 25.88 1.57114 25.88H5.54629C7.23116 25.88 7.98792 24.5902 7.98792 23.3621L16.8864 26.5508C18.657 27.0851 21.2929 26.7504 22.6563 25.6344C25.7933 23.3147 28.9303 20.9965 32.0673 18.6767C33.2752 17.8565 33.1539 16.3397 32.5798 15.4233C32.0473 14.6247 31.1463 14.2182 30.2567 14.2972C29.9611 14.3231 29.667 14.4035 29.3871 14.5414L22.2794 18.0576C22.1081 17.6496 21.831 17.2805 21.4541 17.0033L15.1787 12.3739C14.6218 11.9645 13.9493 11.7418 13.2611 11.7418H7.97805C7.88239 10.5123 6.81292 9.55859 5.54643 9.55859L1.57114 9.56008ZM7.98803 12.8924H13.2612C13.7081 12.8924 14.1422 13.0361 14.5034 13.3018L20.7788 17.9312C21.3485 18.352 21.5013 19.1219 21.1486 19.7352C20.7531 20.2868 20.0421 20.4922 19.4195 20.2222C17.5419 19.5528 15.6556 18.8864 13.7739 18.2185C13.4769 18.1136 13.1499 18.2702 13.0457 18.5704C12.9414 18.8691 13.0971 19.198 13.3941 19.3029L19.0042 21.2908C20.7733 21.9156 22.0798 20.9834 22.4739 19.2426L29.8916 15.5727C30.5042 15.2696 31.2252 15.452 31.6322 16.0625C32.0348 16.6657 32.0034 17.3365 31.3866 17.7531C28.2696 20.0598 25.1126 22.3924 21.98 24.7079C20.5836 25.8297 18.6203 25.9 17.261 25.4648C14.174 24.3459 11.0627 23.2658 7.98713 22.131L7.98803 12.8924Z" fill="#8678D0" stroke="#8678D0"/>
<path d="M24.6926 5.66381L24.5187 6.26052H21.2051L21.3789 5.66381H24.6926ZM23.138 9.68647L21.2664 7.38193L21.2562 6.94983H22.1869C22.4289 6.94983 22.6352 6.91553 22.8056 6.84695C22.9761 6.77664 23.1065 6.67205 23.1968 6.53316C23.2872 6.39255 23.3324 6.21594 23.3324 6.00332C23.3324 5.68953 23.2386 5.44347 23.0511 5.26515C22.8636 5.0851 22.5755 4.99508 22.1869 4.99508H21.2051L21.3789 4.41895H22.1869C22.6028 4.41895 22.9437 4.48839 23.2096 4.62728C23.4772 4.76446 23.675 4.95307 23.8028 5.19313C23.9324 5.43147 23.9971 5.70153 23.9971 6.00332C23.9971 6.27595 23.9375 6.52716 23.8181 6.75693C23.7005 6.98498 23.5113 7.16845 23.2505 7.30734C22.9914 7.44623 22.6488 7.51568 22.2227 7.51568H22.2074L23.9358 9.64532V9.68647H23.138ZM24.6926 4.41895L24.5187 5.01566L21.9108 4.99508L22.0846 4.41895H24.6926Z" fill="#8678D0"/>
</svg>
