<svg width="44" height="44" viewBox="0 0 44 44" fill="none" xmlns="http://www.w3.org/2000/svg">
<path d="M22 44C34.1504 44 44 34.1504 44 22C44 9.84964 34.1504 0 22 0C9.84964 0 0 9.84964 0 22C0 34.1504 9.84964 44 22 44Z" fill="white"/>
<path fill-rule="evenodd" clip-rule="evenodd" d="M28.8197 29H15.1808C13.4311 29 12 27.5455 12 25.7672V18.2328C12 16.4545 13.4316 15 15.1808 15H28.8192C30.5689 15 32 16.4545 32 18.2328V25.7672C32 27.5455 30.5689 29 28.8197 29ZM20.1844 19.2924V25.2716L25.6305 22.1847L20.1844 19.2924Z" fill="#DC143C"/>
</svg>
